<svg width="100%" viewBox="0 0 680 200" role="img" xmlns="http://www.w3.org/2000/svg">
<title>Cognifyz Data Analysis Internship Banner</title>
<defs><clipPath id="clip"><rect width="680" height="200" rx="12"/></clipPath></defs>
<g clip-path="url(#clip)">
  <rect width="680" height="200" fill="#0f172a"/>
  <line x1="0" y1="40" x2="680" y2="40" stroke="#1e293b" stroke-width="1"/>
  <line x1="0" y1="80" x2="680" y2="80" stroke="#1e293b" stroke-width="1"/>
  <line x1="0" y1="120" x2="680" y2="120" stroke="#1e293b" stroke-width="1"/>
  <line x1="0" y1="160" x2="680" y2="160" stroke="#1e293b" stroke-width="1"/>
  <line x1="80" y1="0" x2="80" y2="200" stroke="#1e293b" stroke-width="1"/>
  <line x1="160" y1="0" x2="160" y2="200" stroke="#1e293b" stroke-width="1"/>
  <line x1="240" y1="0" x2="240" y2="200" stroke="#1e293b" stroke-width="1"/>
  <line x1="320" y1="0" x2="320" y2="200" stroke="#1e293b" stroke-width="1"/>
  <line x1="400" y1="0" x2="400" y2="200" stroke="#1e293b" stroke-width="1"/>
  <line x1="480" y1="0" x2="480" y2="200" stroke="#1e293b" stroke-width="1"/>
  <line x1="560" y1="0" x2="560" y2="200" stroke="#1e293b" stroke-width="1"/>
  <line x1="640" y1="0" x2="640" y2="200" stroke="#1e293b" stroke-width="1"/>
  <rect x="500" y="130" width="22" height="50" rx="3" fill="#3b82f6" opacity="0.5"/>
  <rect x="530" y="100" width="22" height="80" rx="3" fill="#10b981" opacity="0.5"/>
  <rect x="560" y="115" width="22" height="65" rx="3" fill="#f59e0b" opacity="0.5"/>
  <rect x="590" y="85" width="22" height="95" rx="3" fill="#3b82f6" opacity="0.5"/>
  <rect x="620" y="105" width="22" height="75" rx="3" fill="#10b981" opacity="0.5"/>
  <rect x="650" y="70" width="22" height="110" rx="3" fill="#f59e0b" opacity="0.5"/>
  <polyline points="20,160 60,130 100,145 140,110 180,125 220,90 260,105 300,75" fill="none" stroke="#6366f1" stroke-width="2" opacity="0.6"/>
  <circle cx="20" cy="160" r="3" fill="#6366f1" opacity="0.8"/>
  <circle cx="60" cy="130" r="3" fill="#6366f1" opacity="0.8"/>
  <circle cx="100" cy="145" r="3" fill="#6366f1" opacity="0.8"/>
  <circle cx="140" cy="110" r="3" fill="#6366f1" opacity="0.8"/>
  <circle cx="180" cy="125" r="3" fill="#6366f1" opacity="0.8"/>
  <circle cx="220" cy="90" r="3" fill="#6366f1" opacity="0.8"/>
  <circle cx="260" cy="105" r="3" fill="#6366f1" opacity="0.8"/>
  <circle cx="300" cy="75" r="3" fill="#6366f1" opacity="0.8"/>
  <rect x="160" y="30" width="360" height="140" rx="10" fill="#1e293b" opacity="0.95"/>
  <rect x="160" y="30" width="360" height="140" rx="10" fill="none" stroke="#334155" stroke-width="1"/>
  <rect x="160" y="30" width="360" height="4" rx="2" fill="#3b82f6"/>
  <text x="340" y="90" text-anchor="middle" font-family="system-ui, sans-serif" font-size="22" font-weight="700" fill="#f8fafc">Cognifyz Technologies</text>
  <text x="340" y="118" text-anchor="middle" font-family="system-ui, sans-serif" font-size="14" font-weight="400" fill="#94a3b8">Data Analysis Internship</text>
  <rect x="198" y="135" width="72" height="22" rx="11" fill="#1d4ed8" opacity="0.8"/>
  <text x="234" y="150" text-anchor="middle" font-family="system-ui, sans-serif" font-size="11" fill="#bfdbfe">Python</text>
  <rect x="280" y="135" width="80" height="22" rx="11" fill="#065f46" opacity="0.8"/>
  <text x="320" y="150" text-anchor="middle" font-family="system-ui, sans-serif" font-size="11" fill="#a7f3d0">Pandas</text>
  <rect x="370" y="135" width="114" height="22" rx="11" fill="#4c1d95" opacity="0.8"/>
  <text x="427" y="150" text-anchor="middle" font-family="system-ui, sans-serif" font-size="11" fill="#ddd6fe">Data Analysis</text>
  <circle cx="630" cy="25" r="3" fill="#3b82f6" opacity="0.5"/>
  <circle cx="645" cy="25" r="3" fill="#10b981" opacity="0.5"/>
  <circle cx="660" cy="25" r="3" fill="#f59e0b" opacity="0.5"/>
</g>
</svg>
